<?xml version="1.0" standalone="no"?>
<!DOCTYPE svg PUBLIC "-//W3C//DTD SVG 20010904//EN"
 "http://www.w3.org/TR/2001/REC-SVG-20010904/DTD/svg10.dtd">
<svg version="1.0" xmlns="http://www.w3.org/2000/svg"
 width="512.000000pt" height="512.000000pt" viewBox="0 0 512.000000 512.000000"
 preserveAspectRatio="xMidYMid meet">
<metadata>
Created by potrace 1.14, written by Peter Selinger 2001-2017
</metadata>
<g transform="translate(0.000000,512.000000) scale(0.100000,-0.100000)"
fill="#000000" stroke="none">
<path d="M2530 4223 c-86 -255 -217 -527 -380 -782 -59 -92 -283 -409 -299
-421 -3 -3 -33 -39 -66 -80 -125 -157 -286 -333 -499 -545 -202 -201 -275
-270 -436 -410 -30 -26 -68 -60 -85 -74 -58 -51 -397 -319 -456 -361 -49 -34
-59 -38 -60 -23 -1 21 -1 24 -23 117 -19 79 -29 96 -60 96 -35 0 -148 -44
-159 -62 -8 -12 13 -78 95 -287 l106 -271 -26 -20 c-25 -20 -20 -24 26 -20 12
1 22 -4 22 -10 0 -15 87 -236 103 -261 28 -45 86 -6 72 49 -4 15 -9 38 -11 52
-3 14 -12 50 -20 81 -7 31 -14 63 -14 71 0 13 89 15 658 15 l657 0 50 27 c160
89 350 263 493 449 188 247 304 504 359 797 l9 45 11 -45 c6 -25 26 -103 43
-175 34 -140 49 -192 112 -385 99 -309 214 -546 325 -669 l39 -44 786 0 c561
0 785 -3 783 -11 -4 -12 -45 -190 -51 -220 -7 -40 50 -73 73 -43 6 6 33 71 61
142 l51 130 145 0 c81 0 146 3 146 8 0 4 -4 7 -10 7 -8 0 -211 95 -229 107 -4
3 37 116 59 168 41 92 110 280 110 299 0 21 -9 28 -55 45 -30 12 -73 24 -94
27 -48 8 -51 4 -80 -126 -32 -138 -28 -130 -59 -120 -50 14 -166 63 -222 93
-332 177 -639 454 -935 842 -38 50 -71 92 -75 95 -10 8 -161 234 -242 363 -70
109 -170 281 -257 439 -49 90 -184 364 -236 478 -26 58 -55 123 -65 145 -10
22 -30 69 -45 105 -14 36 -34 83 -44 105 -10 22 -26 65 -36 95 -11 30 -22 59
-26 63 -4 5 -21 -36 -39 -90z m6 -140 c-4 -16 -8 -37 -10 -48 -10 -49 -73
-260 -91 -300 -7 -16 -34 -81 -60 -142 -87 -207 -244 -479 -414 -718 -76 -107
-239 -318 -297 -385 -12 -14 -41 -47 -64 -75 -104 -122 -220 -245 -420 -445
-209 -209 -270 -266 -470 -440 -52 -45 -108 -94 -125 -109 -16 -15 -64 -53
-105 -86 -41 -33 -77 -62 -80 -65 -3 -4 -21 -18 -41 -33 l-36 -27 -13 62 c-7
35 -19 88 -26 118 -8 30 -14 59 -14 66 0 6 33 35 72 64 275 200 643 515 913
780 479 470 784 855 1067 1345 42 72 149 297 179 377 35 91 45 108 35 61z
m174 -223 c38 -89 232 -483 291 -590 120 -221 168 -301 313 -523 83 -128 295
-421 315 -437 4 -3 17 -18 30 -35 45 -59 167 -191 264 -287 156 -155 295 -266
482 -386 48 -31 259 -131 310 -146 30 -10 55 -21 55 -24 -2 -22 -37 -153 -42
-155 -11 -4 -221 126 -346 215 -236 168 -343 259 -567 483 -159 159 -251 263
-382 435 -219 287 -433 661 -578 1005 -25 61 -50 119 -54 130 -19 42 -64 170
-97 273 -48 152 -46 163 6 42z"/>
</g>
</svg>
